<svg width="45" height="29" viewBox="0 0 45 29" fill="none" xmlns="http://www.w3.org/2000/svg">
<path d="M0 14.1924V28.123H7.81348C16.2861 28.123 16.2949 28.123 17.8594 27.6309C20.3115 26.8574 22.0781 25.2666 22.8428 23.1484C23.7041 20.7754 23.502 17.3389 22.3857 15.3789C21.999 14.6846 21.0762 13.7969 20.4346 13.498C19.9248 13.2607 19.002 13.0146 18.5449 13.0059C18.4131 12.9971 18.5098 12.9443 18.7998 12.8652C20.4873 12.4082 21.7441 11.1426 22.21 9.40234C22.4473 8.5498 22.4209 6.44922 22.1572 5.49121C21.4102 2.67871 19.2832 0.868164 16.1719 0.393555C15.4951 0.288086 13.9219 0.261719 7.67285 0.261719H0V14.1924ZM14.9678 5.30664C16.1103 5.71973 16.6377 6.97656 16.4443 8.86621C16.3389 9.82422 16.1455 10.3604 15.7324 10.835C15.2314 11.4062 15.0908 11.4238 10.4854 11.4238H6.41602V8.30371V5.18359H10.5293C13.7285 5.19238 14.7041 5.21875 14.9678 5.30664ZM15.6621 16.0645C16.9102 16.6797 17.4199 17.7256 17.4287 19.6416C17.4287 20.4062 17.3936 20.7139 17.2441 21.127C16.9805 21.8477 16.6465 22.3047 16.1279 22.6299C15.2842 23.166 15.4424 23.1484 10.749 23.1836L6.41602 23.21V19.4658V15.7217L10.749 15.748L15.0732 15.7744L15.6621 16.0645Z" fill="url(#paint0_linear_23_91)"/>
<path d="M29.1973 3.61914L29.2236 5.31543L34.9629 5.3418L40.6934 5.35938V3.64551V1.93164H34.9365H29.1797L29.1973 3.61914Z" fill="url(#paint1_linear_23_91)"/>
<path d="M33.249 7.47753C31.6934 7.71483 30.1553 8.27733 29.0303 9.0244C27.3252 10.1494 25.8574 12.1885 25.1543 14.4121C24.6445 16.0117 24.5654 16.583 24.5654 18.499C24.5654 20.1162 24.583 20.3359 24.8027 21.1885C25.708 24.7744 27.6768 27.0068 30.8496 28.0703C32.1064 28.4922 33.0996 28.6504 34.7607 28.7119C39.0234 28.8613 42.3369 27.5166 43.8398 25.0293C44.3408 24.1943 44.7363 22.7617 44.7363 21.7861V21.3555H42.2754H39.8145V21.5576C39.8145 22.3047 39.085 23.2978 38.2236 23.7373C36.7646 24.4756 34.4268 24.5107 32.9238 23.8252C32.2646 23.5263 31.5176 22.8496 31.1396 22.2168C30.8145 21.6806 30.498 20.5556 30.498 19.9316V19.5097H37.6963H44.8857L44.9473 19.1758C45.0439 18.5957 45 17.084 44.8682 16.0556C44.2441 11.3008 41.9326 8.53221 37.8105 7.59178C37.0986 7.43358 34.0488 7.35448 33.249 7.47753ZM36.1494 11.5205C37.8545 11.7842 38.9531 12.8213 39.4189 14.6318C39.4893 14.9131 39.5508 15.2822 39.5508 15.4404V15.7305H34.9805H30.4102L30.4629 15.4844C31.166 12.6367 33.3721 11.0898 36.1494 11.5205Z" fill="url(#paint2_linear_23_91)"/>
<defs>
<linearGradient id="paint0_linear_23_91" x1="23.8961" y1="-0.97338" x2="-7.91102" y2="10.6983" gradientUnits="userSpaceOnUse">
<stop stopColor="#0095FF"/>
<stop offset="1" stopColor="#0095FF" stop-opacity="0"/>
</linearGradient>
<linearGradient id="paint1_linear_23_91" x1="40.9493" y1="1.77969" x2="35.3209" y2="10.0483" gradientUnits="userSpaceOnUse">
<stop stopColor="#0095FF"/>
<stop offset="1" stopColor="#0095FF" stop-opacity="0"/>
</linearGradient>
<linearGradient id="paint2_linear_23_91" x1="45.4538" y1="6.47279" x2="18.6265" y2="17.7258" gradientUnits="userSpaceOnUse">
<stop stopColor="#0095FF"/>
<stop offset="1" stopColor="#0095FF" stop-opacity="0"/>
</linearGradient>
</defs>
</svg>
