<svg width="28" height="28" viewBox="0 0 28 28" fill="none" xmlns="http://www.w3.org/2000/svg">
<g clip-path="url(#clip0_7_239)">
<path d="M7.97068 0.102667C6.45868 0.196001 5.38535 0.466667 4.20001 1.036C3.35068 1.456 3.11735 1.624 2.37068 2.37067C1.62401 3.11733 1.45601 3.35067 1.03601 4.2C0.11201 6.11333 0.0186768 6.972 0.0186768 14C0.0186768 21.028 0.11201 21.8867 1.03601 23.8C1.45601 24.6493 1.62401 24.8827 2.37068 25.6293C3.11735 26.376 3.35068 26.544 4.20001 26.964C6.08535 27.8787 7.23335 28 14 28C20.7667 28 21.9147 27.8787 23.8 26.964C24.6494 26.544 24.8827 26.376 25.6294 25.6293C26.376 24.8827 26.544 24.6493 26.964 23.8C27.8787 21.9147 28 20.7667 28 14C28 7.23333 27.8787 6.08533 26.964 4.2C26.544 3.35067 26.376 3.11733 25.6294 2.37067C24.8827 1.624 24.6494 1.456 23.8 1.036C22.6054 0.457335 21.5507 0.196001 19.9827 0.102667C18.508 1.90735e-06 9.48268 1.90735e-06 7.97068 0.102667ZM20.9814 2.744C23.4734 3.22933 24.7894 4.564 25.2654 7.112C25.4147 7.88667 25.4334 8.66133 25.4334 14C25.4334 19.3387 25.4147 20.1133 25.2654 20.888C24.78 23.4733 23.4734 24.78 20.888 25.2653C20.1134 25.4147 19.3387 25.4333 14 25.4333C8.66135 25.4333 7.88668 25.4147 7.11202 25.2653C4.56401 24.7893 3.22935 23.4733 2.74401 20.9813C2.62268 20.356 2.58535 19.2453 2.54801 15.2133C2.50135 10.024 2.57601 7.672 2.84668 6.54267C3.31335 4.61067 4.62935 3.29467 6.58935 2.83733C7.68135 2.58533 9.09068 2.53867 14.7467 2.56667C19.2827 2.59467 20.3374 2.62267 20.9814 2.744Z" fill="url(#paint0_linear_7_239)"/>
<path d="M20.6734 5.06798C19.488 5.73997 19.516 7.39197 20.72 7.99864C21.9147 8.6053 23.24 7.71864 23.128 6.37464C23.0254 5.17998 21.7187 4.47998 20.6734 5.06798Z" fill="url(#paint1_linear_7_239)"/>
<path d="M12.7027 6.90668C12.0027 7.05602 11.368 7.28935 10.5933 7.68135C9.53865 8.21335 8.22265 9.53868 7.68132 10.5933C7.01865 11.8813 6.85999 12.5533 6.85999 14C6.85999 15.4467 7.01865 16.1187 7.68132 17.4067C8.21332 18.4613 9.53865 19.7867 10.5933 20.3187C11.8813 20.9813 12.5533 21.14 14 21.14C15.4467 21.14 16.1187 20.9813 17.4067 20.3187C18.4613 19.7867 19.7867 18.4613 20.3187 17.4067C20.9813 16.1187 21.14 15.4467 21.14 14C21.14 12.5533 20.9813 11.8813 20.3187 10.5933C19.7773 9.53868 18.4613 8.21335 17.4067 7.68135C16.2213 7.07468 15.5213 6.88801 14.2333 6.85068C13.6173 6.83202 12.9267 6.86001 12.7027 6.90668ZM15.0733 9.47335C15.988 9.70668 16.6133 10.0707 17.2667 10.724C19.1333 12.6 19.1333 15.4 17.2667 17.276C15.428 19.124 12.572 19.124 10.7333 17.276C8.86665 15.4 8.86665 12.6 10.7333 10.724C11.9 9.54801 13.5333 9.08135 15.0733 9.47335Z" fill="url(#paint2_linear_7_239)"/>
</g>
<defs>
<linearGradient id="paint0_linear_7_239" x1="32.5" y1="-1" x2="-2" y2="29.5" gradientUnits="userSpaceOnUse">
<stop stop-color="#0095FF"/>
<stop offset="1" stop-color="#0095FF" stop-opacity="0"/>
</linearGradient>
<linearGradient id="paint1_linear_7_239" x1="23.6709" y1="4.7337" x2="19.5558" y2="8.36751" gradientUnits="userSpaceOnUse">
<stop stop-color="#0095FF"/>
<stop offset="1" stop-color="#0095FF" stop-opacity="0"/>
</linearGradient>
<linearGradient id="paint2_linear_7_239" x1="23.4365" y1="6.32071" x2="5.80949" y2="21.8836" gradientUnits="userSpaceOnUse">
<stop stop-color="#0095FF"/>
<stop offset="1" stop-color="#0095FF" stop-opacity="0"/>
</linearGradient>
<clipPath id="clip0_7_239">
<rect width="28" height="28" fill="white"/>
</clipPath>
</defs>
</svg>
