<svg width="28" height="28" viewBox="0 0 28 28" fill="none" xmlns="http://www.w3.org/2000/svg">
<path d="M13.0335 0.0314713C9.08537 0.291471 5.3452 2.3029 2.92009 5.4629C2.34897 6.21147 1.96528 6.8229 1.52302 7.70004C0.7293 9.27147 0.287041 10.7829 0.0820202 12.6143C0.0293006 13.0772 0.0293006 14.9229 0.0820202 15.3858C0.357334 17.8486 1.14813 19.9972 2.49248 21.9429C4.7565 25.2286 8.318 27.3972 12.231 27.8829C15.5142 28.2915 18.7389 27.5715 21.4979 25.8143C24.8105 23.7086 27.0803 20.3086 27.7657 16.44C27.9297 15.5143 27.9561 15.1743 27.9561 13.9858C27.9531 12.8029 27.9297 12.5 27.7657 11.5572C27.2531 8.6629 25.8619 6.02861 23.7502 3.97147C20.8975 1.18862 17.0372 -0.231384 13.0335 0.0314713ZM14.5858 0.771473C17.6435 0.922901 20.3762 2.01147 22.687 4.0029C24.5644 5.6229 25.9937 7.8429 26.7084 10.2629C26.9134 10.9572 27.0686 11.72 27.1682 12.5429C27.2297 13.0686 27.2561 14.4115 27.2121 14.9715C26.9808 17.9143 25.8678 20.56 23.9289 22.7715C23.3197 23.4658 22.3736 24.3143 21.6092 24.8486C20.7686 25.4372 19.5912 26.06 18.6423 26.4172C18.2381 26.5715 18.1824 26.5829 17.9657 26.5858C17.7548 26.5858 17.7167 26.5772 17.5879 26.5C17.4854 26.4372 17.4239 26.3743 17.3711 26.2715L17.295 26.1286L17.3038 24.1858C17.3155 22.2229 17.3008 21.8058 17.2071 21.3629C17.0988 20.8515 16.8791 20.3772 16.6067 20.06C16.5101 19.9486 16.431 19.8515 16.431 19.8458C16.431 19.84 16.5188 19.8286 16.6272 19.8172C17.5498 19.7258 18.6569 19.4286 19.4038 19.0715C20.4465 18.5772 21.1699 17.8915 21.6854 16.9143C22.2331 15.8743 22.4615 14.7172 22.4264 13.1943C22.4147 12.6258 22.4 12.4772 22.3356 12.18C22.154 11.3458 21.8318 10.6715 21.3046 10.0115L21.0937 9.74576L21.164 9.52862C21.4393 8.68004 21.4013 7.54004 21.0644 6.55719L20.9561 6.2429L20.6661 6.23433C19.9163 6.21433 18.8795 6.60862 17.6728 7.37433L17.3184 7.60004L16.8879 7.50005C15.8071 7.24576 14.9607 7.16005 13.7511 7.18004C12.6674 7.20004 11.9469 7.28862 11.0331 7.51719L10.6875 7.60576L10.3301 7.37719C9.49541 6.84862 8.75147 6.49719 8.08955 6.32576C7.85817 6.2629 7.73516 6.24862 7.4247 6.24576L7.04394 6.2429L6.97658 6.42862C6.86235 6.73719 6.74227 7.2229 6.68955 7.58576C6.60168 8.22005 6.66905 9.06005 6.85064 9.58005L6.90922 9.74576L6.69541 10.0115C6.16821 10.6715 5.84896 11.3429 5.66445 12.18C5.59708 12.4886 5.58537 12.6115 5.57365 13.2572C5.56194 13.8086 5.57072 14.0943 5.60587 14.4286C5.82261 16.4229 6.58997 17.8258 7.96068 18.7229C8.73097 19.2286 9.86152 19.6143 11.0565 19.7858C11.2352 19.8086 11.4226 19.8372 11.4753 19.8458L11.572 19.86L11.4607 19.98C11.1766 20.28 10.9628 20.6972 10.8339 21.1915C10.787 21.3715 10.749 21.5458 10.749 21.5743C10.749 21.6343 10.664 21.6772 10.2803 21.8C9.58327 22.0229 8.88913 22.0258 8.30336 21.8029C7.76152 21.6 7.37491 21.2515 6.90629 20.5572C6.67198 20.2086 6.53725 20.0458 6.35273 19.8715C5.81968 19.3743 5.30127 19.1515 4.74478 19.1772C4.46947 19.1915 4.32302 19.2458 4.2703 19.3572C4.20294 19.5 4.42553 19.74 4.92637 20.0686C5.36863 20.3572 5.82553 20.9658 6.13892 21.6858C6.36737 22.2086 6.39666 22.2658 6.53432 22.4715C6.97365 23.1343 7.65608 23.5686 8.55231 23.76C8.91842 23.84 9.8703 23.8343 10.3389 23.7486C10.5234 23.7172 10.6816 23.6972 10.6904 23.7029C10.6992 23.7115 10.705 24.2686 10.705 24.94V26.16L10.6172 26.3C10.4912 26.4972 10.3096 26.5858 10.0314 26.5829C9.85859 26.5829 9.76194 26.5572 9.42219 26.4315C4.91758 24.7715 1.63139 20.7515 0.91089 16.0286C0.799593 15.2915 0.776162 14.9458 0.776162 14C0.776162 13.0543 0.799593 12.7086 0.91089 11.9715C1.39415 8.80576 3.04311 5.89719 5.53558 3.81433C7.71465 1.99433 10.4912 0.911472 13.341 0.77433C13.9912 0.740044 13.9707 0.740044 14.5858 0.771473Z" fill="url(#paint0_linear_7_236)"/>
<defs>
<linearGradient id="paint0_linear_7_236" x1="2.614e-07" y1="28" x2="28" y2="3.19845e-05" gradientUnits="userSpaceOnUse">
<stop stop-color="#0095FF" stop-opacity="0"/>
<stop offset="1" stop-color="#0095FF"/>
</linearGradient>
</defs>
</svg>
