<svg width="32" height="30" viewBox="0 0 32 30" fill="none" xmlns="http://www.w3.org/2000/svg">
<path d="M3.79047 1.46081C2.75047 1.61402 1.94666 2.04514 1.37142 2.75416C1.17714 3.00001 0.940949 3.47388 0.85333 3.81236C0.758092 4.17222 0.754283 5.00238 0.849521 5.35868C1.15809 6.50951 2.03047 7.33611 3.27238 7.65321C3.61142 7.73872 3.69142 7.74585 4.41904 7.74585C5.13142 7.74229 5.23047 7.73516 5.5619 7.65321C6.80761 7.33967 7.69904 6.54514 8.02285 5.45131C8.12951 5.10214 8.11808 4.14727 8.00761 3.7696C7.66856 2.60452 6.7238 1.77792 5.44761 1.51426C5.10856 1.44656 4.11809 1.4145 3.79047 1.46081Z" fill="url(#paint0_linear_7_244)"/>
<path d="M22.9333 9.8694C20.9067 10.076 19.2838 10.9739 18.0724 12.5559L17.8286 12.873L17.821 11.576L17.8095 10.2791H14.5829H11.3524L11.3372 19.0262C11.3257 23.8361 11.3067 27.9692 11.2914 28.2079L11.2648 28.6461H14.5448H17.8286V23.2732C17.8286 17.5511 17.8286 17.5226 18.0114 17.0309C18.3276 16.1758 19.1276 15.3171 19.9276 14.9644C20.3962 14.7613 20.7124 14.7043 21.4095 14.7008C21.9505 14.7008 22.0838 14.7114 22.3619 14.7827C22.8876 14.9145 23.2419 15.1069 23.6267 15.4632C23.9162 15.7376 23.981 15.8231 24.1676 16.1794C24.3772 16.5855 24.5295 17.0452 24.6057 17.5119C24.7048 18.0962 24.7238 19.0262 24.7238 23.7186V28.6461H27.981H31.2419L31.2267 22.7744C31.2152 17.5333 31.2076 16.8599 31.1505 16.4608C30.9638 15.1711 30.6895 14.2589 30.2248 13.3825C29.2419 11.544 27.4362 10.3076 25.2191 9.95491C24.5905 9.85514 23.4857 9.81595 22.9333 9.8694Z" fill="url(#paint1_linear_7_244)"/>
<path d="M1.14285 19.4537V28.6461H4.39619H7.64952L7.66857 28.5285C7.69904 28.3326 7.67619 10.354 7.64571 10.3041C7.61904 10.272 6.92571 10.2613 4.37714 10.2613H1.14285V19.4537Z" fill="url(#paint2_linear_7_244)"/>
<defs>
<linearGradient id="paint0_linear_7_244" x1="8.69082" y1="1.10545" x2="1.11537" y2="9.0667" gradientUnits="userSpaceOnUse">
<stop stopColor="#0095FF"/>
<stop offset="1" stopColor="#0095FF" stop-opacity="0"/>
</linearGradient>
<linearGradient id="paint1_linear_7_244" x1="32.8633" y1="8.85105" x2="10.2694" y2="30.5981" gradientUnits="userSpaceOnUse">
<stop stopColor="#0095FF"/>
<stop offset="1" stopColor="#0095FF" stop-opacity="0"/>
</linearGradient>
<linearGradient id="paint2_linear_7_244" x1="8.21377" y1="9.28893" x2="-4.69528" y2="13.4487" gradientUnits="userSpaceOnUse">
<stop stopColor="#0095FF"/>
<stop offset="1" stopColor="#0095FF" stop-opacity="0"/>
</linearGradient>
</defs>
</svg>
