<svg width="40" height="53" viewBox="0 0 40 53" fill="none" xmlns="http://www.w3.org/2000/svg">
<path d="M20.0141 52.864C13.2941 52.864 8.32606 50.584 5.11006 46.024C1.94206 41.464 0.358063 35.08 0.358063 26.872C0.358063 18.664 1.94206 12.28 5.11006 7.72C8.32606 3.16 13.2941 0.879997 20.0141 0.879997C26.7341 0.879997 31.6781 3.16 34.8461 7.72C38.0621 12.28 39.6701 18.664 39.6701 26.872C39.6701 35.08 38.0621 41.464 34.8461 46.024C31.6781 50.584 26.7341 52.864 20.0141 52.864ZM20.0141 44.368C23.2301 44.368 25.4621 43.24 26.7101 40.984C28.0061 38.728 28.6541 35.584 28.6541 31.552V22.192C28.6541 18.16 28.0061 15.016 26.7101 12.76C25.4621 10.504 23.2301 9.376 20.0141 9.376C16.7981 9.376 14.5421 10.504 13.2461 12.76C11.9981 15.016 11.3741 18.16 11.3741 22.192V31.552C11.3741 35.584 11.9981 38.728 13.2461 40.984C14.5421 43.24 16.7981 44.368 20.0141 44.368ZM20.0141 31.12C18.3341 31.12 17.1581 30.784 16.4861 30.112C15.8621 29.44 15.5501 28.624 15.5501 27.664V26.08C15.5501 25.12 15.8621 24.304 16.4861 23.632C17.1581 22.96 18.3341 22.624 20.0141 22.624C21.6941 22.624 22.8461 22.96 23.4701 23.632C24.1421 24.304 24.4781 25.12 24.4781 26.08V27.664C24.4781 28.624 24.1421 29.44 23.4701 30.112C22.8461 30.784 21.6941 31.12 20.0141 31.12Z" fill="url(#paint0_linear_3_118)" fill-opacity="0.4"/>
<defs>
<linearGradient id="paint0_linear_3_118" x1="20" y1="-11" x2="20" y2="61" gradientUnits="userSpaceOnUse">
<stop stopColor="#2C2C2C"/>
<stop offset="1" stopColor="#2C2C2C" stop-opacity="0"/>
</linearGradient>
</defs>
</svg>
