<svg width="1845" height="1075" viewBox="0 0 1845 1075" fill="none" xmlns="http://www.w3.org/2000/svg">
<g clip-path="url(#clip0_73_33)">
<g opacity="0.99">
<path opacity="0.99" d="M436.38 611.71C442.59 601.33 449.1 591.21 455.72 581.2L460.72 573.71C462.38 571.21 463.98 568.71 465.61 566.16C468.88 561.16 472.15 556.16 475.47 551.16L480.47 543.7C482.13 541.21 483.84 538.76 485.47 536.23C488.68 531.23 491.95 526.23 495.23 521.23C496.88 518.74 498.49 516.23 500.16 513.76C501.83 511.29 503.48 508.76 505.04 506.27C508.19 501.21 511.41 496.21 514.62 491.19L519.44 483.68L524.08 476.08C527.16 471 530.24 465.93 533.4 460.91C539.27 450.64 545.56 440.57 551.21 430.23L553.41 426.38L554.52 424.46C554.88 423.82 555.21 423.16 555.52 422.46C556.89 419.87 558.24 417.25 559.64 414.66L561.75 410.77C562.46 409.47 563.02 408.12 563.68 406.77L567.58 398.85C568.8 396.19 569.87 393.47 571.09 390.78L571.98 388.78L572.72 386.72L574.24 382.59C574.76 381.222 575.204 379.827 575.57 378.41L576.19 376.29L576.5 375.22C576.6 374.87 576.65 374.51 576.72 374.15L577.15 371.99C577.329 371.274 577.449 370.545 577.51 369.81C577.57 369.09 577.65 368.34 577.7 367.6V366.49V365.92L577.62 365.37L577.77 365.31L578.05 365.82L578.26 366.36C578.41 366.72 578.55 367.08 578.69 367.46C578.88 368.2 579.05 368.96 579.23 369.72C579.416 370.479 579.54 371.251 579.6 372.03C579.69 372.8 579.76 373.58 579.84 374.37C579.84 374.76 579.93 375.15 579.94 375.54V376.7V379.03C579.964 380.59 579.887 382.15 579.71 383.7L579.11 388.36L578.81 390.69L578.36 392.95C577.75 395.95 577.12 399.01 576.36 402.02C575.6 405.03 574.63 407.92 573.76 410.88C573.31 412.35 572.89 413.88 572.36 415.28L570.77 419.58C569.7 422.45 568.58 425.3 567.48 428.17C567.2 428.88 566.94 429.61 566.64 430.31L565.7 432.4L563.8 436.56C562.54 439.33 561.27 442.11 559.96 444.86C558.65 447.61 557.28 450.34 555.84 453.01C552.94 458.35 550.1 463.73 547.09 469.01C544.08 474.29 540.77 479.35 537.57 484.49L532.76 492.2L527.68 499.71C524.28 504.71 520.9 509.71 517.44 514.71C515.75 517.21 513.96 519.64 512.17 522.07C510.38 524.5 508.56 526.9 506.76 529.32C503.147 534.16 499.513 538.977 495.86 543.77C492.24 548.59 488.32 553.17 484.54 557.86C469.43 576.58 453.29 594.46 436.38 611.71Z" fill="white"/>
</g>
<path d="M647.43 396.03C661.907 390.569 676.905 386.605 692.19 384.2C696.04 383.63 699.95 383.2 703.75 382.85C707.757 382.401 711.79 382.237 715.82 382.36C717.981 382.444 720.131 382.701 722.25 383.13C724.541 383.604 726.757 384.385 728.84 385.45C730.085 386.073 731.239 386.864 732.27 387.8C732.55 388.08 732.83 388.37 733.1 388.67C733.391 388.958 733.649 389.276 733.87 389.62C734.1 389.98 734.33 390.34 734.55 390.71L734.86 391.27L735.1 391.87C735.428 392.652 735.659 393.472 735.79 394.31C735.85 394.72 735.91 395.13 735.95 395.54C735.99 395.95 735.95 396.31 735.95 396.7C735.954 397.081 735.937 397.461 735.9 397.84L735.74 398.84C735.634 399.517 735.477 400.186 735.27 400.84C734.556 403.118 733.547 405.293 732.27 407.31C731.141 409.135 729.895 410.885 728.54 412.55C725.988 415.711 723.25 418.716 720.34 421.55C714.62 427.17 708.52 432.13 702.69 436.97C690.923 446.757 679.087 456.457 667.18 466.07C655.273 475.683 643.273 485.177 631.18 494.55L626.64 498.06L624.37 499.82L623.88 500.19L623.46 500.54L622.52 501.35C619.958 503.628 617.575 506.098 615.39 508.74C611.05 513.92 607.73 519.81 607.16 525.14C606.859 527.737 607.266 530.366 608.34 532.75C609.672 535.407 611.502 537.783 613.73 539.75C618.58 544.12 625.02 547.62 631.73 550.54C638.636 553.461 645.704 555.981 652.9 558.09C656.53 559.2 660.21 560.23 663.9 561.28L675.04 564.28C673.11 564.34 671.18 564.34 669.24 564.36C667.3 564.38 665.38 564.29 663.44 564.24C661.5 564.19 659.57 564.09 657.64 563.96C655.71 563.83 653.76 563.69 651.83 563.48C643.999 562.751 636.243 561.373 628.64 559.36C620.98 557.17 613.23 554.36 606.1 549.09C602.299 546.326 599.115 542.801 596.75 538.74C595.525 536.541 594.604 534.186 594.01 531.74C593.432 529.274 593.203 526.739 593.33 524.21C593.606 519.46 594.815 514.812 596.89 510.53C598.798 506.594 601.135 502.881 603.86 499.46C606.492 496.151 609.377 493.051 612.49 490.19L613.71 489.1L614.38 488.53L615.02 488.02L617.26 486.22L621.74 482.63C633.74 473.12 645.74 463.63 657.92 454.35C670.1 445.07 682.3 435.81 694.59 426.67C700.76 422.04 706.85 417.67 712.35 412.91C715.075 410.575 717.666 408.088 720.11 405.46C721.246 404.22 722.308 402.915 723.29 401.55C724.14 400.381 724.848 399.116 725.4 397.78C725.503 397.52 725.587 397.253 725.65 396.98L725.74 396.63C725.748 396.533 725.748 396.436 725.74 396.34C725.74 396.24 725.74 396.15 725.79 396.06C725.78 395.997 725.78 395.933 725.79 395.87C725.79 395.71 725.79 395.65 725.79 395.55C725.73 395.2 725.43 394.71 724.2 393.95C722.915 393.196 721.537 392.614 720.1 392.22C718.485 391.797 716.841 391.499 715.18 391.33C711.57 391.002 707.94 390.932 704.32 391.12C700.48 391.25 696.77 391.41 693 391.66C677.94 392.53 662.83 394.79 647.43 396.03Z" fill="white"/>
<path d="M558.87 485.1C565.3 482.27 571.93 479.8 578.64 477.55C585.35 475.3 592.2 473.35 599.16 471.67C606.192 470.01 613.309 468.735 620.48 467.85C627.872 467.007 635.319 466.763 642.75 467.12L640.38 482.76C633.934 481.239 627.376 480.235 620.77 479.76C613.946 479.314 607.102 479.244 600.27 479.55C593.38 479.89 586.45 480.55 579.54 481.45C572.63 482.35 565.71 483.52 558.87 485.1Z" fill="white"/>
<path d="M0.00992584 517.2C1.9777 514.687 4.51848 512.681 7.41992 511.35C9.68988 510.326 12.1604 509.824 14.6499 509.88L29.0799 510.06C33.8299 510.06 38.8799 510.14 43.7899 510.36C48.6999 510.58 53.5699 510.83 58.3899 511.11C63.2099 511.39 67.9699 511.65 72.6899 511.83L87.0799 512.23L116.01 513.01L173.87 514.37L231.74 515.59C270.32 516.303 308.9 516.9 347.48 517.38L376.42 517.78L405.35 518.04L434.29 518.31C443.93 518.41 453.577 518.473 463.23 518.5L521.1 518.82H578.97H607.91L636.84 518.69L694.71 518.42L752.57 517.77L781.5 517.46L810.43 516.95L868.28 515.95L926.11 514.46L955.03 513.72L983.94 512.72L1041.76 510.72L1099.56 508.14L1128.46 506.85L1157.35 505.35C1195.85 503.24 1234.35 500.97 1272.82 498.26C1292.05 496.927 1311.28 495.487 1330.5 493.94C1349.71 492.39 1368.93 490.85 1388.14 489.13C1464.94 482.25 1541.62 473.85 1617.9 462.6C1636.97 459.787 1656.01 456.76 1675.02 453.52C1694.02 450.29 1713.02 446.86 1731.91 443.11C1769.74 435.6 1807.39 427.11 1844.59 416.73C1807.91 428.83 1770.59 438.9 1732.9 447.73C1714.07 452.123 1695.18 456.237 1676.23 460.07C1657.28 463.903 1638.28 467.48 1619.23 470.8C1543.04 484.18 1466.31 494.24 1389.42 502.36C1370.19 504.36 1350.96 506.36 1331.71 508.11C1312.46 509.86 1293.21 511.54 1273.94 513.11C1235.41 516.23 1196.85 519.003 1158.28 521.43L1129.34 523.16L1100.4 524.69L1042.5 527.75L984.59 530.21L955.59 531.44L926.59 532.44L868.65 534.36L810.71 535.75L781.71 536.44L752.71 536.92L694.71 537.8C617.443 538.56 540.17 538.643 462.89 538.05C453.237 537.99 443.57 537.883 433.89 537.73L404.89 537.34L375.89 536.95L346.89 536.43C308.26 535.77 269.64 534.75 231.02 533.75L173.1 532.03L115.19 530.03L86.1899 528.92L71.6499 528.34C66.7199 528.1 61.8499 527.77 57.0399 527.44C52.2299 527.11 47.4499 526.78 42.7299 526.54C38.0099 526.3 33.3899 526.19 28.4999 526.09L13.9699 525.74C11.4482 525.693 8.97106 525.067 6.72993 523.91C3.87329 522.43 1.44283 520.244 -0.330078 517.56L0.00992584 517.2Z" fill="white"/>
<path d="M713.16 479.46C716.666 475.732 720.829 472.681 725.44 470.46C729.655 468.366 734.112 466.797 738.71 465.79L745.52 464.23L747.22 463.84C747.822 463.697 748.434 463.593 749.05 463.53C749.735 463.471 750.424 463.471 751.11 463.53C753.529 463.646 755.886 464.331 757.99 465.53C759.176 466.202 760.255 467.048 761.19 468.04C761.86 468.77 761.9 468.85 762.11 469.09L762.66 469.76L764.9 472.45L769.36 477.83L778.29 488.59L780.52 491.27L781.63 492.61C781.205 492.094 780.663 491.686 780.05 491.42C779.395 491.129 778.679 491.001 777.963 491.046C777.247 491.091 776.553 491.309 775.94 491.68C775.701 491.821 775.48 491.988 775.28 492.18L775.91 491.58L777.17 490.37L797.34 471.01L799.86 468.6L801.12 467.39L801.76 466.78C804.354 464.306 807.816 462.952 811.4 463.01C812.843 463.005 814.277 463.227 815.65 463.67C816.361 463.91 817.053 464.204 817.72 464.55L818.5 464.96L830.89 471.42L843.28 477.88L849.48 481.12L852.58 482.73L854.11 483.46L854.88 483.87C855.4 484.13 854.61 483.72 854.53 483.72C853.856 483.469 853.114 483.469 852.44 483.72C852.075 483.858 851.737 484.057 851.44 484.31C851.296 484.428 851.162 484.559 851.04 484.7L851.6 484.03L856.11 478.69L865.11 468.01L869.62 462.68L870.75 461.34L871.31 460.67C871.908 459.977 872.578 459.35 873.31 458.8C875.296 457.305 877.697 456.464 880.181 456.392C882.666 456.32 885.111 457.022 887.18 458.4C887.902 458.894 888.573 459.46 889.18 460.09L890.4 461.34L892.84 463.84L897.73 468.84L907.51 478.84L909.95 481.34L910.57 481.96C910.96 482.36 910.57 481.96 910.35 481.78C909.954 481.468 909.503 481.234 909.02 481.09C908.146 480.83 907.206 480.912 906.39 481.32C906.25 481.32 905.57 481.8 905.87 481.6L906.59 481.1L908.01 480.1L919.44 472.05L925.16 468.05L928.01 466.05L929.57 464.96C930.478 464.358 931.435 463.833 932.43 463.39C934.104 462.655 935.855 462.108 937.65 461.76C938.666 461.561 939.695 461.441 940.73 461.4C941.41 461.4 941.99 461.4 942.15 461.4H943.02L950.02 461.59L964.02 461.99L978.02 462.38L985.02 462.58H985.89C984.89 461.76 976.45 466.77 979.19 465.76C978.95 466.12 979.01 466.04 979.04 465.98L979.24 465.58C979.57 464.88 979.98 463.9 980.37 462.93C981.95 458.93 983.45 454.57 984.92 450.24C986.39 445.91 987.8 441.5 989.19 437.11L989.8 435.21C990.119 434.242 990.56 433.318 991.11 432.46C991.951 431.182 993.047 430.093 994.33 429.26C996.059 428.152 998.076 427.575 1000.13 427.6C1001.88 427.627 1003.6 428.088 1005.13 428.94C1006.15 429.5 1007.08 430.208 1007.9 431.04C1008.31 431.462 1008.69 431.906 1009.05 432.37L1013.44 437.81L1022.11 448.66L1026.49 454.1L1028.49 456.62C1028.71 456.88 1028.82 456.97 1028.78 456.94C1028.61 456.793 1028.41 456.669 1028.21 456.57C1027.68 456.31 1027.46 456.38 1027.83 456.38C1028.58 456.352 1029.33 456.286 1030.07 456.18C1030.61 456.1 1031.3 456.04 1031.94 455.97L1033.89 455.77C1035.19 455.64 1036.48 455.61 1037.77 455.53C1048.1 455.1 1057.89 456.37 1067.11 457.53C1071.73 458.1 1076.23 458.65 1080.61 458.99C1082.81 459.16 1084.97 459.29 1087.1 459.34C1088.19 459.34 1089.19 459.34 1090.21 459.34C1091.23 459.34 1092.21 459.27 1093.21 459.22C1101.22 458.769 1109.03 456.56 1116.09 452.75C1119.55 450.852 1122.77 448.56 1125.7 445.92L1126.79 444.92L1127.79 443.92C1128.14 443.56 1128.5 443.22 1128.79 442.86L1129.73 441.75C1130.35 441 1131.04 440.31 1131.6 439.51L1133.31 437.14C1135.51 433.81 1137.36 430.261 1138.83 426.55C1140.34 422.643 1141.56 418.633 1142.49 414.55C1144.29 405.757 1145.63 396.875 1146.49 387.94L1147.34 380.94L1148.27 373.94L1150.09 360.17C1152.42 341.79 1154.42 323.383 1156.09 304.95C1159.35 268.09 1161.15 231.15 1160.34 194.33C1159.95 175.92 1158.91 157.58 1156.93 139.33C1155.05 121.216 1151.99 103.244 1147.77 85.53C1145.66 76.8054 1143.1 68.1942 1140.11 59.73C1137.23 51.3901 1133.74 43.2774 1129.65 35.46C1127.56 31.61 1125.34 27.84 1122.92 24.22C1121.71 22.42 1120.48 20.62 1119.19 18.88L1118.71 18.22C1118.61 18.0778 1118.5 17.9409 1118.39 17.81C1118.33 17.72 1118.27 17.65 1118.32 17.72C1118.37 17.79 1118.39 17.78 1118.64 18C1119.11 18.3635 1119.62 18.666 1120.16 18.9C1121.7 19.5666 1123.41 19.7547 1125.06 19.44C1126.68 19.1366 1128.18 18.3689 1129.38 17.23C1129.79 16.8362 1130.14 16.3927 1130.44 15.91L1126.83 27.15C1125.39 31.54 1124.01 36 1122.62 40.45C1117.07 58.23 1111.45 76.02 1106.04 93.78L1097.86 120.46C1095.16 129.35 1092.34 138.21 1089.75 147.14C1068.75 218.46 1049.67 290.34 1033.59 362.87C1017.51 435.4 1004.29 508.52 995.69 582.18C991.41 619 988.3 655.94 986.77 692.92C985.134 729.852 985.385 766.844 987.52 803.75C989.79 840.58 994.24 877.26 1002.03 913.15C1009.82 949.04 1020.95 984.15 1037.34 1016.63C1038.34 1018.63 1039.41 1020.63 1040.47 1022.63C1041.53 1024.63 1042.71 1026.63 1043.83 1028.55L1047.2 1034.47C1048.32 1036.47 1049.42 1038.47 1050.68 1040.36L1054.33 1046.19L1056.15 1049.1L1058.04 1052.03C1058.7 1053.03 1059.38 1054.14 1060.04 1055.29C1060.37 1055.85 1060.74 1056.52 1061.04 1057.03L1061.39 1057.66C1061.55 1057.94 1061.75 1058.29 1061.96 1058.66C1062.55 1059.76 1063 1060.92 1063.32 1062.13C1063.58 1063.15 1063.71 1064.2 1063.68 1065.25C1063.69 1066.77 1063.34 1068.27 1062.68 1069.63C1062.2 1071.44 1058.22 1075.26 1053.78 1074.72C1051.82 1074.55 1049.96 1073.79 1048.45 1072.52C1047.87 1072.05 1047.32 1071.53 1046.83 1070.97C1046.44 1070.54 1046.15 1070.17 1045.83 1069.81C1044.94 1068.63 1044.12 1067.4 1043.37 1066.12C1042.68 1064.99 1042.06 1063.89 1041.46 1062.81C1040.27 1060.64 1039.17 1058.51 1038.08 1056.39C1035.92 1052.15 1033.86 1047.94 1031.8 1043.74L1019.56 1018.63C1003.21 985.29 985.94 952.5 967.14 920.63C948.413 888.709 928.052 857.774 906.14 827.95C884.275 798.172 860.428 769.901 834.76 743.33C809.15 716.801 781.267 692.565 751.43 670.9C721.656 649.259 689.601 630.943 655.84 616.28C647.4 612.66 638.857 609.29 630.21 606.17C621.563 603.05 612.8 599.967 603.92 596.92C586.347 590.86 568.707 585.037 551 579.45C533.293 573.863 515.487 568.62 497.58 563.72C479.7 558.807 461.7 554.32 443.58 550.26C407.389 542.178 370.752 536.248 333.86 532.5C324.64 531.56 315.4 530.733 306.14 530.02C301.51 529.66 296.88 529.34 292.25 529.02C289.93 528.86 287.623 528.723 285.33 528.61C283.03 528.5 280.74 528.38 278.41 528.29C259.83 527.53 241.2 526.93 222.58 526.29L110.82 522.96L54.9299 521.32L26.9899 520.51L12.9899 520.11L5.98989 519.91H5.13989C5.49989 510.32 5.72989 517.26 6.03989 515.13H7.78989L11.2799 515.24L67.1699 516.92L95.1099 517.79L109.11 518.24L116.11 518.47L119.61 518.59L121.36 518.66C121.75 516.38 122.03 521.82 121.48 521.25H120.6L64.6999 519.43L8.81989 517.54L120.63 518.72H121.49C121.99 518.16 121.56 523.53 121.28 521.25H119.54L116.05 521.2L109.05 521.11L95.0499 520.94L67.0499 520.63L11.1399 519.98H7.64989H5.89989C5.66989 517.83 5.17989 524.76 5.14989 515.16H6.03989L13.0399 515.24L27.0399 515.4L55.0399 515.72L110.95 516.4L222.77 518.09C241.41 518.41 260.04 518.73 278.72 519.22C288.13 519.45 297.48 520.01 306.8 520.61C316.12 521.21 325.47 521.94 334.8 522.78C372.157 526.139 409.282 531.709 445.98 539.46C464.32 543.307 482.543 547.62 500.65 552.4C518.76 557.16 536.74 562.33 554.65 567.77C572.56 573.21 590.34 578.94 608.06 584.88C616.92 587.86 625.763 590.883 634.59 593.95C643.417 597.017 652.237 600.407 661.05 604.12C695.88 618.843 728.972 637.38 759.72 659.39C790.375 681.374 819.047 705.998 845.41 732.98C871.717 759.888 896.179 788.54 918.63 818.74C941.058 848.863 961.874 880.154 980.99 912.48C1000.18 944.72 1017.8 977.87 1034.41 1011.38L1046.78 1036.48C1048.84 1040.64 1050.89 1044.79 1052.98 1048.84C1054.03 1050.84 1055.08 1052.84 1056.14 1054.77C1056.67 1055.77 1057.2 1056.66 1057.73 1057.51C1058.16 1058.24 1058.63 1058.96 1059.14 1059.64L1059.29 1059.82C1059.18 1059.71 1059.06 1059.6 1058.93 1059.5C1058.52 1059.32 1058.17 1058.5 1055.13 1058.06C1051.3 1057.59 1047.85 1060.96 1047.61 1062.25C1046.71 1064.51 1047.01 1064.25 1046.9 1064.93C1046.88 1065.4 1046.93 1065.87 1047.04 1066.32C1047.18 1066.82 1047.21 1066.77 1047.04 1066.56L1045.51 1063.87C1045 1063.01 1044.44 1062.13 1043.84 1061.19L1041.93 1058.26L1040.03 1055.26L1036.24 1049.26C1034.95 1047.26 1033.77 1045.26 1032.58 1043.14L1029.01 1036.92C1027.83 1034.85 1026.61 1032.79 1025.45 1030.7C1024.29 1028.61 1023.21 1026.48 1022.13 1024.35C1013.53 1007.35 1006.18 989.745 1000.13 971.68C994.077 953.714 989.013 935.43 984.96 916.91C976.78 879.97 972.08 842.44 969.61 804.91C967.269 767.389 966.862 729.773 968.39 692.21C969.82 654.69 972.85 617.29 977.07 580.06C985.53 505.58 998.64 431.77 1014.72 358.72C1030.8 285.67 1049.81 213.29 1070.95 141.61C1073.55 132.61 1076.39 123.74 1079.1 114.8L1087.33 88.01C1092.79 70.12 1098.4 52.36 1103.96 34.57C1105.35 30.12 1106.72 25.68 1108.18 21.21L1110.34 14.52L1111.42 11.17L1111.73 10.24C1111.84 9.91999 1111.97 9.55 1112.12 9.15C1112.51 8.06225 1112.99 7.01139 1113.57 6.00998C1114.14 5.01547 1114.85 4.10376 1115.67 3.29999C1117.26 1.7017 1119.3 0.627736 1121.52 0.222019C1123.74 -0.183697 1126.03 0.0982288 1128.08 1.03C1129.16 1.50504 1130.17 2.12764 1131.08 2.88001C1131.64 3.33511 1132.17 3.83328 1132.65 4.37C1133.03 4.76118 1133.38 5.17174 1133.72 5.60001C1134.05 6.02001 1134.32 6.38001 1134.46 6.60001L1135.01 7.35001C1136.49 9.35001 1137.9 11.4 1139.29 13.46C1142.04 17.6 1144.56 21.87 1146.91 26.21C1156.32 43.59 1162.53 62.29 1167.04 80.87C1171.44 99.4282 1174.61 118.256 1176.53 137.23C1178.53 156.1 1179.53 175.01 1179.92 193.86C1180.66 231.59 1178.73 269.22 1175.34 306.59C1173.63 325.257 1171.54 343.9 1169.09 362.52L1167.19 376.45L1166.25 383.29L1165.39 390.14C1164.27 399.36 1163.15 408.96 1160.88 418.74C1159.73 423.738 1158.2 428.645 1156.33 433.42C1154.35 438.373 1151.85 443.102 1148.87 447.53L1146.49 450.81C1145.69 451.91 1144.74 452.89 1143.87 453.93L1142.53 455.46C1142.08 455.96 1141.59 456.46 1141.12 456.9L1139.7 458.32L1138.2 459.67C1134.19 463.269 1129.78 466.383 1125.04 468.95C1115.62 474.001 1105.21 476.917 1094.54 477.49C1093.22 477.55 1091.91 477.66 1090.6 477.64C1089.29 477.62 1087.96 477.64 1086.73 477.64C1084.2 477.58 1081.73 477.42 1079.26 477.21C1074.36 476.81 1069.61 476.21 1064.98 475.62C1055.73 474.43 1046.98 473.33 1038.62 473.62C1037.62 473.69 1036.54 473.69 1035.52 473.8L1034 473.95C1033.48 474 1033 474.03 1032.4 474.12C1030.83 474.333 1029.25 474.44 1027.67 474.44C1025.19 474.427 1022.74 473.874 1020.5 472.82C1019.25 472.21 1018.08 471.433 1017.04 470.51C1016.28 469.833 1015.57 469.101 1014.92 468.32C1014.37 467.67 1014.02 467.21 1013.66 466.76L1012.57 465.4L1008.21 459.94L999.48 449.02L995.11 443.46C994.83 443.09 994.76 443.06 995.11 443.46C995.523 443.862 995.995 444.199 996.51 444.46C997.521 445.007 998.65 445.302 999.8 445.32C1001.27 445.341 1002.71 444.935 1003.95 444.15C1004.75 443.629 1005.43 442.948 1005.95 442.15C1006.2 441.779 1006.4 441.379 1006.55 440.96L1006.11 442.46C1004.67 446.95 1003.2 451.46 1001.67 455.89C1000.14 460.32 998.58 464.82 996.67 469.48C996.18 470.67 995.67 471.84 995.02 473.24C994.85 473.59 994.65 473.97 994.42 474.4C994.1 474.989 993.742 475.557 993.35 476.1C995.77 475.54 986.92 481.1 985.26 480.1H984.39L977.39 479.87L963.39 479.39L949.39 478.91L942.39 478.67H941.52H941.19C941.06 478.651 940.929 478.651 940.8 478.67C940.306 478.761 939.823 478.905 939.36 479.1C939.18 479.17 939.05 479.26 939.15 479.19L937.84 480.1L934.97 482.1L929.24 486.1L917.76 494.1L916.33 495.1L915.61 495.6C914.975 496.045 914.306 496.439 913.61 496.78C910.646 498.157 907.282 498.402 904.15 497.47C902.546 497.006 901.045 496.239 899.73 495.21C899.2 494.787 898.699 494.33 898.23 493.84L897.63 493.21L895.2 490.7L885.48 480.7L880.62 475.7L878.19 473.19L877.11 471.86C877.319 472.073 877.551 472.264 877.8 472.43C878.129 472.646 878.481 472.824 878.85 472.96C879.623 473.234 880.451 473.313 881.262 473.191C882.073 473.069 882.842 472.749 883.5 472.26C883.762 472.061 884 471.833 884.21 471.58L883.64 472.25L882.51 473.58L877.96 478.89L868.88 489.51L864.34 494.82L863.77 495.49C863.27 496.072 862.725 496.614 862.14 497.11C860.349 498.58 858.211 499.568 855.93 499.979C853.65 500.39 851.302 500.212 849.11 499.46C848.424 499.221 847.755 498.934 847.11 498.6L846.34 498.19L844.79 497.37L841.7 495.74L835.58 492.46L823.22 485.92L810.87 479.46L810.1 479.06C810.252 479.13 810.41 479.19 810.57 479.24C810.827 479.329 811.097 479.377 811.37 479.38C811.814 479.371 812.243 479.224 812.6 478.96C812.754 478.854 812.901 478.737 813.04 478.61L812.41 479.21L811.11 480.36L808.57 482.76L788.31 501.99L787.04 503.2L786.41 503.8C785.796 504.387 785.126 504.913 784.41 505.37C782.8 506.353 780.976 506.933 779.094 507.06C777.212 507.187 775.327 506.858 773.6 506.1C771.919 505.353 770.433 504.227 769.26 502.81L768.11 501.46L765.89 498.76L757.03 487.95L752.6 482.55L750.38 479.84L749.83 479.17C749.67 478.96 749.34 478.59 749.61 478.89C749.737 479.039 749.889 479.164 750.06 479.26C750.2 479.32 750.06 479.26 750.31 479.31H750.62C750.62 479.31 751.25 479.19 750.73 479.31L749.02 479.69L742.2 481.21C737.614 482.29 732.911 482.797 728.2 482.72C723.065 482.686 717.98 481.707 713.2 479.83L713.16 479.46Z" fill="white"/>
</g>
<defs>
<clipPath id="clip0_73_33">
<rect width="1844.62" height="1074.82" fill="white"/>
</clipPath>
</defs>
</svg>
